<?xml version="1.0" encoding="UTF-8"?>
<!-- Generated by Pixelmator Pro 3.7 -->
<svg width="201" height="142" viewBox="0 0 201 142" xmlns="http://www.w3.org/2000/svg">
    <path id="shape" fill="#000000" fill-rule="evenodd" stroke="none" d="M 0.009976 139.361313 C 0.009976 139.361313 -5.419956 -29.618668 200.529999 4.561264 C 200.529999 4.561264 213.109955 192.231308 14.570034 128.561264 C 10.989956 127.411362 0.820034 146.771347 0.009976 139.361313 Z"/>
    <clipPath id="clipPath1">
        <path clip-rule="evenodd" d="M 0.009976 139.361315 C 0.009976 139.361315 -5.419956 -29.618674 200.529998 4.561258 C 200.529998 4.561258 213.109954 192.231313 14.570034 128.561266 C 10.989956 127.411364 0.820034 146.771349 0.009976 139.361315 Z"/>
    </clipPath>
    <g id="inner" clip-path="url(#clipPath1)">
        <path id="iris" fill="#ffc100" fill-rule="evenodd" stroke="none" d="M 187.584305 40.751328 C 201.141663 75.373779 175.185013 117.90847 129.608505 135.755219 C 84.031998 153.601959 36.094524 140.002563 22.537167 105.380104 C 8.979808 70.757652 34.936459 28.222961 80.512962 10.376221 C 126.08947 -7.47052 174.026947 6.128876 187.584305 40.751328 Z"/>
        <path id="pupil-big" fill="#000000" fill-rule="evenodd" stroke="none" d="M 166.636902 27.969604 C 181.857254 66.838943 163.439148 110.392357 125.498917 125.248871 C 87.558685 140.105392 44.463516 120.63916 29.24317 81.769821 C 14.022823 42.900482 32.440929 -0.652924 70.381157 -15.509445 C 108.321388 -30.365967 151.41655 -10.899734 166.636902 27.969604 Z"/>
        <path id="pupil-small" fill="#000000" fill-rule="evenodd" stroke="none" d="M 92.214569 112.400932 C 92.214569 112.400932 154.731796 56.780579 92.214569 -2.712448 C 92.214569 -2.712448 25.505089 48.918175 92.214569 112.400932 Z"/>
        <path id="reflection" fill="#ffffff" fill-rule="evenodd" stroke="none" d="M 125.200012 36.777641 C 125.200012 44.41021 119.012634 50.597588 111.379944 50.597588 C 103.747375 50.597588 97.559998 44.41021 97.559998 36.777641 C 97.559998 29.145073 103.747375 22.957573 111.379944 22.957573 C 119.012634 22.957573 125.200012 29.145073 125.200012 36.777641 Z"/>
    </g>
</svg>
