<?xml version="1.0" encoding="UTF-8"?>
<!-- Generated by Pixelmator Pro 3.6.17 -->
<svg width="180" height="180" viewBox="0 0 180 180" xmlns="http://www.w3.org/2000/svg">
    <path id="s" fill="#000000" fill-rule="evenodd" stroke="none" d="M 39.194824 110.944824 L 46.885254 110.944824 C 50.181168 124.128479 56.077106 133.686493 64.573242 139.619141 C 73.435593 145.844757 82.590775 148.95752 92.039063 148.95752 C 100.901413 148.95752 108.115692 146.796906 113.682129 142.475586 C 119.028839 138.374008 121.702148 133.320343 121.702148 127.314453 C 121.702148 120.795868 118.003456 115.192894 110.605957 110.505371 C 106.138161 107.648911 99.656296 104.719254 91.160156 101.716309 L 84.897949 99.40918 C 66.660553 92.963837 54.868679 87.067902 49.521973 81.721191 C 44.248508 76.447731 41.611816 69.489792 41.611816 60.847168 C 41.611816 51.545364 45.456993 43.81839 53.147461 37.666016 C 60.32523 31.879852 70.286072 28.986816 83.030273 28.986816 C 93.723686 28.986816 103.611282 32.355927 112.693359 39.094238 C 114.304695 40.339355 115.952629 40.961914 117.637207 40.961914 C 119.687996 40.961914 121.042969 38.47171 121.702148 33.491211 L 129.172852 33.491211 L 129.172852 70.185547 L 120.603516 70.185547 C 118.113266 61.323196 113.975128 54.182159 108.188965 48.762207 C 101.597137 42.609833 93.357468 39.533691 83.469727 39.533691 C 75.48629 39.533691 69.297386 41.218246 64.902832 44.587402 C 60.068825 48.322769 57.651855 53.303192 57.651855 59.528809 C 57.651855 63.996605 59.775856 67.915024 64.023926 71.28418 C 67.759293 74.14064 75.962341 77.802711 88.633301 82.270508 L 96.32373 85.01709 C 112.144119 90.583527 123.130341 96.223114 129.282715 101.936035 C 135.8013 108.015167 139.060547 116.144966 139.060547 126.325684 C 139.060547 136.652893 134.775925 144.782684 126.206543 150.715332 C 117.856895 156.574738 107.090401 159.504395 93.906738 159.504395 C 81.821716 159.504395 71.091843 156.355011 61.716797 150.056152 L 61.16748 149.726563 C 57.725082 147.382797 55.527836 146.210938 54.575684 146.210938 C 52.085434 146.210938 49.521988 150.202591 46.885254 158.186035 L 39.194824 158.186035 Z"/>
</svg>
