<?xml version="1.0" encoding="UTF-8"?>
<!-- Generated by Pixelmator Pro 3.6.17 -->
<svg width="180" height="180" viewBox="0 0 180 180" xmlns="http://www.w3.org/2000/svg">
    <path id="s" fill="#ff8ec6" fill-rule="evenodd" stroke="none" d="M 39.44043 106.944824 L 47.130859 106.944824 C 50.426773 120.128479 56.322712 129.686493 64.818848 135.619141 C 73.681198 141.844757 82.83638 144.95752 92.284668 144.95752 C 101.147018 144.95752 108.361298 142.796906 113.927734 138.475586 C 119.274445 134.374008 121.947754 129.320343 121.947754 123.314453 C 121.947754 116.795868 118.249062 111.192894 110.851563 106.505371 C 106.383766 103.648911 99.901901 100.719254 91.405762 97.716309 L 85.143555 95.40918 C 66.906158 88.963837 55.114285 83.067902 49.767578 77.721191 C 44.494114 72.447731 41.857422 65.489792 41.857422 56.847168 C 41.857422 47.545364 45.702599 39.81839 53.393066 33.666016 C 60.570835 27.879852 70.531677 24.986816 83.275879 24.986816 C 93.969292 24.986816 103.856888 28.355927 112.938965 35.094238 C 114.550301 36.339355 116.198235 36.961914 117.882813 36.961914 C 119.933601 36.961914 121.288574 34.47171 121.947754 29.491211 L 129.418457 29.491211 L 129.418457 66.185547 L 120.849121 66.185547 C 118.358871 57.323196 114.220734 50.182159 108.43457 44.762207 C 101.842743 38.609833 93.603073 35.533691 83.715332 35.533691 C 75.731895 35.533691 69.542992 37.218246 65.148438 40.587402 C 60.31443 44.322769 57.897461 49.303192 57.897461 55.528809 C 57.897461 59.996605 60.021461 63.915024 64.269531 67.28418 C 68.004898 70.14064 76.207947 73.802711 88.878906 78.270508 L 96.569336 81.01709 C 112.389725 86.583527 123.375946 92.223114 129.52832 97.936035 C 136.046906 104.015167 139.306152 112.144966 139.306152 122.325684 C 139.306152 132.652893 135.02153 140.782684 126.452148 146.715332 C 118.102501 152.574738 107.336006 155.504395 94.152344 155.504395 C 82.067322 155.504395 71.337448 152.355011 61.962402 146.056152 L 61.413086 145.726563 C 57.970684 143.382797 55.773441 142.210938 54.821289 142.210938 C 52.331043 142.210938 49.76759 146.202591 47.130859 154.186035 L 39.44043 154.186035 Z"/>
</svg>
